:SAMPLES-PER-SECOND 30
:FULLY-SPECIFIED
:DEGREES
16
root  -69.2315 41.4489 -3.88807 -1.29146 89.4052 -3.36166
RightUpLeg  -3.59118 -9.46038 -5.03143
RightLeg  8.25908 -6.78524 3.59844
RightFoot  -4.62827 -0.0434227 0.236312
RightToes  0.000482159 0.542163 -0.142577
Spine  8.43153 0.922506 0.557335
Spine1  -2.8977 0.940422 0.363586
HEad  -1.64071 1.57828 0.890295
LeftShoulder1  0.849461 -1.07326 -11.2534
LeftArm  -21.7471 15.35 -9.99216
LeftForeArm  16.8197 -4.0272 0.394796
LeftHand  -0.25398 0.0180481 5.50724
RightShoulder  0.627118 0.245419 9.37459
RightArm  -20.9659 -8.7147 6.13136
RightForeArm  -5.78823 5.14438 3.04857
RightHand  -4.19204 11.3716 -28.8841
LeftUpLeg  -2.2793 4.04107 -1.26866
LeftLeg  5.98075 17.5561 -2.59389
LeftFoot  -7.10017 -0.0631144 2.85402
LeftToes  1.06246e-005 4.65855e-005 -8.18503e-006
17
root  -69.1381 41.3835 -3.96573 -0.279404 89.1283 -1.64905
RightUpLeg  -3.43141 -10.4177 -5.08424
RightLeg  9.73555 -5.43989 2.97933
RightFoot  -5.43341 -0.0769275 0.768768
RightToes  0.000482159 0.542163 -0.142577
Spine  8.98226 0.991281 0.620139
Spine1  -2.41738 1.10755 -0.190206
HEad  -1.67817 1.32967 1.38585
LeftShoulder1  0.91793 -1.29305 -11.8992
LeftArm  -22.0544 15.4176 -9.58083
LeftForeArm  16.6112 -4.25147 0.508474
LeftHand  -0.25398 0.0180481 5.50724
RightShoulder  0.711298 0.495966 10.5592
RightArm  -21.0648 -9.33297 6.61852
RightForeArm  -7.26829 6.18217 3.28063
RightHand  -4.28822 11.6225 -29.0998
LeftUpLeg  -1.83981 4.52275 -1.46218
LeftLeg  7.2503 17.354 -1.94165
LeftFoot  -8.53124 -0.00486627 2.28607
LeftToes  1.06246e-005 4.65855e-005 -8.18503e-006
18
root  -69.0265 41.2918 -4.03453 4.3302 88.5262 3.76773
RightUpLeg  -3.65802 -11.9398 -4.94121
RightLeg  12.0495 -3.41744 1.78345
RightFoot  -6.48439 -0.0847837 0.951438
RightToes  0.000482159 0.542163 -0.142577
Spine  9.65438 1.22926 0.370908
Spine1  -2.03025 1.41589 -0.678976
HEad  -1.4456 1.06426 1.82621
LeftShoulder1  0.985051 -1.51587 -12.4446
LeftArm  -22.7835 15.6112 -9.70659
LeftForeArm  16.3911 -4.60813 0.744161
LeftHand  -0.25398 0.0180481 5.50724
RightShoulder  0.808854 0.741877 11.9595
RightArm  -20.9404 -9.94484 7.51342
RightForeArm  -6.9999 7.03634 3.42966
RightHand  -4.36388 11.8752 -29.1763
LeftUpLeg  -1.19124 5.05139 -1.62749
LeftLeg  8.44737 17.377 -1.50977
LeftFoot  -9.99964 0.0402336 1.7014
LeftToes  1.06246e-005 4.65855e-005 -8.18503e-006
19
root  -68.9194 41.1632 -4.10903 8.8026 87.5328 8.90733
RightUpLeg  -4.74576 -12.8203 -4.68281
RightLeg  15.3485 -1.54403 0.213861
RightFoot  -7.54185 -0.0959246 1.38503
RightToes  0.000482159 0.542163 -0.142577
Spine  10.3036 1.56526 -0.251225
Spine1  -1.80221 1.74574 -0.935344
HEad  -0.888706 0.925418 2.13705
LeftShoulder1  1.02635 -1.53258 -13.2739
LeftArm  -23.6371 15.9313 -10.1678
LeftForeArm  15.9793 -5.27748 0.948828
LeftHand  -0.25398 0.0180481 5.50724
RightShoulder  0.983224 1.32804 13.3862
RightArm  -20.8 -10.5718 8.77078
RightForeArm  -5.7301 7.60161 3.46025
RightHand  -4.32407 11.7619 -29.1046
LeftUpLeg  -0.713672 5.71964 -1.86866
LeftLeg  9.70112 17.5997 -1.24597
LeftFoot  -11.4989 0.0707587 1.21185
LeftToes  1.06246e-005 4.65855e-005 -8.18503e-006
20
root  -68.8143 41.0107 -4.19787 11.4546 86.3199 12.1872
RightUpLeg  -6.57488 -10.6659 -4.75205
RightLeg  19.7993 -2.27661 -1.23648
RightFoot  -7.99477 -0.148701 3.1906
RightToes  0.000482159 0.542163 -0.142577
Spine  11.113 1.93666 -0.932365
Spine1  -1.76134 2.09622 -1.25827
HEad  -0.195908 0.883571 2.23968
LeftShoulder1  1.08114 -1.49364 -14.6364
LeftArm  -24.3525 16.0922 -10.6371
LeftForeArm  15.5756 -6.00727 1.06188
LeftHand  -0.25398 0.0180481 5.50724
RightShoulder  1.25062 2.19151 15.1592
RightArm  -20.3408 -11.5238 9.96132
RightForeArm  -4.30861 8.33369 3.57488
RightHand  -4.229 11.5703 -28.8038
LeftUpLeg  -0.320064 6.52362 -2.19488
LeftLeg  11.0289 17.9218 -1.03165
LeftFoot  -12.9446 0.0886187 0.780225
LeftToes  1.06246e-005 4.65855e-005 -8.18503e-006
